<svg xmlns="http://www.w3.org/2000/svg" width="209" height="164" fill="none" viewBox="0 0 209 164">
    <path fill="#fff" d="M32.417 98.34V84.753H5.801v-10.82l30.547-39.156h8.314v39.092h7.991v10.948h-7.991v13.589H32.417v-.064zM18.046 73.805h15.789V53.195l-15.79 20.609zM174.714 98.34V84.753h-26.616v-10.82l30.547-39.156h8.249v39.092h7.992v10.948h-7.992v13.589h-12.18v-.064zm-14.436-24.536h15.789V53.195l-15.789 20.609z"/>
    <path fill="#454C5E" d="M152.609 25.18l-2.127-2.124-2.063 1.996-2.062-1.996-2.127 2.125 2.063 2.06-2.063 1.997 2.127 2.125 2.062-1.996 2.063 1.996 2.127-2.125-2.063-1.996 2.063-2.061zM22.233 101.948l-2.126-2.126-2.063 2.061-2.062-2.06-2.127 2.125 2.063 2.06-2.063 1.997 2.127 2.125 2.063-1.996 2.062 1.996 2.127-2.125-2.063-1.997 2.063-2.06zM61.03 11.076l-2.126-2.125-2.063 1.997-1.998-1.997-2.19 2.125 2.062 1.997-2.063 2.06 2.191 2.126 1.998-2.06 2.063 2.06 2.126-2.125-2.062-2.061 2.062-1.997zM195.144 117.597l-2.127-2.125-2.062 1.996-1.998-1.996-2.191 2.125 2.062 1.996-2.062 2.061 2.191 2.125 1.998-1.996 2.062 1.996 2.127-2.125-2.063-2.061 2.063-1.996zM22.234 34.52c-1.74 0-3.093-1.417-3.093-3.092 0-1.739 1.417-3.091 3.093-3.091 1.74 0 3.093 1.417 3.093 3.091 0 1.675-1.417 3.091-3.093 3.091zm0-4.96c-1.031 0-1.804.838-1.804 1.804 0 .966.837 1.803 1.804 1.803.967 0 1.805-.837 1.805-1.803s-.838-1.803-1.805-1.803zM112.716 6.247c-1.74 0-3.093-1.417-3.093-3.091 0-1.675 1.418-3.092 3.093-3.092 1.741 0 3.094 1.417 3.094 3.092 0 1.674-1.418 3.091-3.094 3.091zm0-4.959c-1.031 0-1.804.837-1.804 1.803s.838 1.804 1.804 1.804c.967 0 1.805-.838 1.805-1.804 0-.966-.838-1.803-1.805-1.803zM200.043 49.847c-1.74 0-3.094-1.417-3.094-3.092 0-1.739 1.418-3.09 3.094-3.09 1.74 0 3.093 1.416 3.093 3.09 0 1.675-1.353 3.092-3.093 3.092zm0-4.96c-1.032 0-1.805.838-1.805 1.804 0 .966.838 1.803 1.805 1.803.966 0 1.804-.837 1.804-1.803s-.773-1.803-1.804-1.803zM160.279 101.239c-1.74 0-3.093-1.417-3.093-3.091 0-1.739 1.417-3.091 3.093-3.091 1.74 0 3.093 1.416 3.093 3.09.065 1.675-1.353 3.092-3.093 3.092zm0-4.959c-1.031 0-1.805.838-1.805 1.803 0 .966.838 1.804 1.805 1.804s1.804-.838 1.804-1.803c0-.966-.773-1.804-1.804-1.804zM52.652 140.588c-1.74 0-3.093-1.417-3.093-3.091 0-1.739 1.417-3.092 3.093-3.092 1.74 0 3.093 1.417 3.093 3.092.065 1.674-1.353 3.091-3.093 3.091zm0-4.959c-1.031 0-1.805.837-1.805 1.803s.838 1.803 1.805 1.803 1.804-.837 1.804-1.803-.773-1.803-1.804-1.803zM58.388 39.091c3.203 0 5.8-2.595 5.8-5.796s-2.597-5.796-5.8-5.796-5.8 2.595-5.8 5.796 2.597 5.796 5.8 5.796zM61.289 102.849c1.601 0 2.9-1.298 2.9-2.898s-1.299-2.898-2.9-2.898c-1.602 0-2.9 1.297-2.9 2.898 0 1.6 1.298 2.898 2.9 2.898zM208.999 90.549c0 1.61-1.289 2.897-2.9 2.897s-2.9-1.287-2.9-2.897c0-1.61 1.289-2.899 2.9-2.899s2.9 1.288 2.9 2.898zM5.8 53.26c0 1.61-1.289 2.898-2.9 2.898S0 54.87 0 53.26s1.289-2.898 2.9-2.898 2.9 1.288 2.9 2.898zM151.32 53.26c0 1.61-1.289 2.898-2.9 2.898-1.612 0-2.9-1.288-2.9-2.898s1.288-2.898 2.9-2.898c1.611 0 2.9 1.288 2.9 2.898zM142.363 138.721c2.42 0 4.382-1.961 4.382-4.38 0-2.418-1.962-4.379-4.382-4.379s-4.383 1.961-4.383 4.379c0 2.419 1.963 4.38 4.383 4.38z"/>
    <path fill="#212121" d="M148.42 102.656l.258-.193c.387-.322.387-.902.064-1.224l-4.898-5.345c5.027-6.312 8.185-14.233 8.572-22.927.967-21.961-16.047-40.509-37.959-41.475-21.976-.966-40.537 16.036-41.504 37.933-.966 21.96 16.047 40.508 37.959 41.474 8.701.387 16.885-2.061 23.652-6.504l4.898 5.345c.322.386.902.386 1.225.064l.257-.193 36.219 39.543h13.792l-42.535-46.498z" opacity=".15"/>
    <path fill="#3C4252" d="M195.337 153.855l-59.033-58.992-7.605 7.6 59.033 58.991c2.191 2.19 5.865 2.061 7.863-.322 1.869-2.125 1.74-5.281-.258-7.277z"/>
    <path fill="#E0E0E0" d="M123.287 98.792l7.154 7.149c.386.386.966.386 1.289 0l8.055-8.05c.387-.387.387-.966 0-1.288l-7.153-7.149-9.345 9.338z"/>
    <path fill="#BDBDBD" d="M133.792 90.549l.902.901-7.605 11.142-3.415-3.349 10.118-8.694z"/>
    <path fill="#212121" d="M131.986 105.683l7.541-7.599.515.515-5.929 9.274-2.127-2.19z" opacity=".64"/>
    <path fill="#F5F5F5" d="M100.408 24.602c-23.2 0-41.955 18.805-41.955 41.925 0 23.12 18.819 41.925 41.955 41.925s41.954-18.805 41.954-41.925c0-23.12-18.818-41.925-41.954-41.925zm0 75.22c-18.368 0-33.319-14.876-33.319-33.295 0-18.355 14.887-33.296 33.319-33.296 18.431 0 33.319 14.877 33.319 33.296-.065 18.419-14.952 33.295-33.319 33.295z"/>
    <path fill="#454C5E" d="M100.407 99.823c18.401 0 33.319-14.907 33.319-33.296s-14.918-33.296-33.319-33.296c-18.402 0-33.32 14.907-33.32 33.296s14.918 33.296 33.32 33.296z" opacity=".8"/>
    <path fill="#fff" d="M78.304 44.437c-4.834 4.83-7.734 9.725-6.445 10.949 1.224 1.223 6.187-1.675 10.956-6.44 4.769-4.766 7.733-9.725 6.445-10.949-1.225-1.224-6.123 1.675-10.956 6.44z"/>
</svg>
